PathFileType	4	(X/Y/Z)	 s09c0202.trc
DataRate	CameraRate	NumFrames	NumMarkers	Units	OrigDataRate	OrigDataStartFrame	OrigNumFrames
200	200	4	50	mm	200	1751	2000
Frame#	Time	racr			lacr			c7			jug			rlel			rdr			llel			ldr			s2			lic			ric			lasi			rasi			rpsi			lpsi			rgt			lgt			rth1			rth2			rth3			rth4			rlfc			rmfc			rsh1			rsh2			rsh3			rsh4			rlmal			rmmal			rcal			rtoe			rmt5			lth1			lth2			lth4			lth3			llfc			lmfc			llmal			lmmal			lcal			lmt5			lsh1			lsh2			lsh3			lsh4			ltoe			SBIKE			LBIKE			RBIKE			
		X1	Y1	Z1	X2	Y2	Z2	X3	Y3	Z3	X4	Y4	Z4	X5	Y5	Z5	X6	Y6	Z6	X7	Y7	Z7	X8	Y8	Z8	X9	Y9	Z9	X10	Y10	Z10	X11	Y11	Z11	X12	Y12	Z12	X13	Y13	Z13	X14	Y14	Z14	X15	Y15	Z15	X16	Y16	Z16	X17	Y17	Z17	X18	Y18	Z18	X19	Y19	Z19	X20	Y20	Z20	X21	Y21	Z21	X22	Y22	Z22	X23	Y23	Z23	X24	Y24	Z24	X25	Y25	Z25	X26	Y26	Z26	X27	Y27	Z27	X28	Y28	Z28	X29	Y29	Z29	X30	Y30	Z30	X31	Y31	Z31	X32	Y32	Z32	X33	Y33	Z33	X34	Y34	Z34	X35	Y35	Z35	X36	Y36	Z36	X37	Y37	Z37	X38	Y38	Z38	X39	Y39	Z39	X40	Y40	Z40	X41	Y41	Z41	X42	Y42	Z42	X43	Y43	Z43	X44	Y44	Z44	X45	Y45	Z45	X46	Y46	Z46	X47	Y47	Z47	X48	Y48	Z48	X49	Y49	Z49	X50	Y50	Z50	
1751	8.7550	517.974418	1237.514867	-98.931811	459.200242	1223.831236	-465.135505	487.812082	1320.430227	-285.075729	473.765703	1186.190331	-276.793294	473.393943	1021.866476	36.858733	671.497722	900.883369	-33.718967	422.827288	954.351982	-546.537197	664.235995	907.858221	-474.909951	16.889920	1115.758951	-193.597630	129.643007	1138.746394	-363.414983	174.788524	1107.930793	-64.382120	183.660605	1087.953641	-345.191668	215.778112	1060.164197	-96.111655	52.648961	1142.713503	-136.547167	33.279486	1158.757051	-243.059146	150.334897	957.921072	-30.854899	129.987500	1035.049433	-406.968737	220.839169	844.699613	-43.775559	279.661287	780.219448	-55.496132	291.326522	692.770881	-68.777575	305.948795	794.040914	-77.685434	321.734794	604.704373	-100.732882	296.091343	584.095591	-196.670201	280.455161	512.255283	-64.526602	286.939844	423.594950	-76.301416	248.783181	344.553410	-73.479052	310.722726	421.603786	-108.195458	223.021871	244.722219	-70.178640	222.952397	255.151977	-145.959541	139.784212	233.630552	-110.149764	388.744295	136.101494	-132.412901	309.935827	145.468923	-61.642671	263.852687	997.615450	-395.960287	346.290660	998.758211	-381.192534	354.274230	1027.452654	-355.399755	427.832375	955.132272	-379.726683	507.060105	894.642078	-361.569866	512.256996	867.856947	-259.877229	266.429830	621.462164	-404.465702	279.469136	616.637530	-332.082599	184.360085	622.605450	-368.637298	303.733436	495.735688	-429.173664	449.434901	820.905005	-390.138089	408.366467	744.467168	-390.948071	332.665410	697.282946	-398.324794	427.664863	725.921315	-363.230486	388.937069	458.514159	-359.818105	-64.650178	852.820928	-236.182634	20.963644	85.820745	-441.915888	21.139299	84.111684	-43.544466	
1752	8.7600	519.561218	1236.253068	-101.609762	455.476360	1224.054530	-467.897375	487.471717	1319.774861	-287.715222	473.137592	1185.514564	-279.432677	474.660808	1022.209319	36.949675	671.892250	901.113686	-34.397755	422.214138	954.042762	-546.573606	663.585710	907.989722	-474.482255	18.222789	1116.015260	-191.701384	128.233234	1140.912918	-361.764661	176.362671	1107.693119	-63.631900	182.107451	1089.751658	-344.390406	216.936903	1060.078523	-95.708142	53.547315	1143.315605	-133.966731	32.962124	1160.125905	-240.294734	151.854291	958.045961	-30.047407	128.558851	1038.743284	-406.156541	221.657194	845.149395	-43.652906	280.513889	780.563392	-55.517577	292.379185	693.428132	-69.342380	306.809516	794.611234	-77.671975	322.271545	604.855913	-101.052282	297.084960	584.529592	-197.196908	279.589189	513.452806	-64.796887	284.167026	424.538586	-76.647693	244.391557	346.479573	-73.542680	307.906288	422.174459	-108.470921	216.637326	247.326379	-70.188848	216.014676	257.314178	-145.811201	133.021564	238.324422	-110.118396	378.664709	133.011381	-132.495399	300.248173	145.391299	-61.625422	262.775549	1002.825987	-394.577744	345.042730	1003.807084	-379.771878	352.753282	1032.453059	-353.621410	426.861020	960.634786	-378.901369	506.976216	899.738204	-360.470616	512.152689	873.140813	-259.533112	272.430253	620.413871	-404.766351	285.390146	616.136807	-332.512345	190.316725	619.113959	-368.835324	313.487243	495.894945	-429.447212	450.414669	824.753927	-389.733553	411.315861	747.253394	-390.908045	336.851917	698.161395	-398.305587	431.202419	728.964684	-363.421074	399.813823	461.751091	-360.091766	-64.656692	852.880928	-235.973638	20.938681	85.934079	-441.937323	21.088651	84.141702	-43.567222	
1753	8.7650	520.986047	1235.005009	-104.022938	452.049809	1224.251972	-470.383188	487.484493	1319.221258	-289.370743	472.408577	1184.876451	-281.982378	475.730156	1022.346278	36.924420	672.401963	901.345917	-34.812957	421.545734	953.617372	-546.704495	662.833827	908.091657	-474.024260	16.850208	1118.080994	-188.117844	126.609735	1143.301895	-360.073859	177.763291	1107.819264	-62.954660	180.572446	1091.491321	-343.626071	217.782456	1060.242833	-95.521564	54.439818	1144.100883	-131.754417	33.283482	1161.284577	-238.374700	153.162861	958.469645	-29.562593	127.242014	1042.485803	-405.285202	222.743110	845.857238	-43.457027	281.724557	781.423146	-55.719853	293.988171	694.211018	-68.965646	308.002447	795.682754	-77.677285	323.542267	605.509751	-101.428723	298.687524	585.621657	-197.752559	279.530253	515.082650	-65.194547	282.025997	426.084771	-77.054099	240.599440	348.906804	-73.678461	305.630455	423.318989	-108.868420	210.659032	250.620416	-70.190177	209.967081	260.276658	-145.839791	126.848728	243.815864	-110.119957	368.455933	130.746032	-132.354873	290.711520	145.826947	-61.567969	261.731793	1007.475534	-393.423955	345.162007	1007.819258	-377.573801	351.712528	1036.348135	-351.932507	425.519376	965.066534	-378.252758	506.228919	903.619832	-360.402414	510.500768	877.523880	-258.198171	278.234304	618.321997	-405.082727	291.081494	614.723682	-332.882082	195.641269	614.563808	-369.289493	322.990594	495.514488	-429.787002	450.784452	827.541213	-389.791255	413.818643	748.823153	-391.065951	340.606322	698.090678	-398.442704	434.308687	731.047713	-363.721683	410.537221	464.521274	-360.269270	-64.659025	852.915849	-235.786418	20.897137	86.046081	-441.915027	21.065580	84.159463	-43.556580	
1754	8.7700	522.207553	1233.656197	-106.325005	448.924298	1224.316814	-472.413934	487.562892	1318.303266	-291.436052	471.614782	1184.246798	-284.283243	476.815026	1022.276629	36.868554	672.925257	901.583150	-35.194675	420.778946	953.487568	-546.843049	661.978615	908.135562	-473.582626	18.285959	1118.451144	-187.410837	125.369040	1145.590969	-358.696216	179.038850	1108.296700	-62.314662	178.971138	1093.068443	-342.861048	218.579127	1060.682243	-95.256257	55.163232	1145.075328	-129.823546	33.086738	1162.735943	-235.612365	154.206316	959.150058	-29.124589	125.829632	1046.400324	-404.562302	224.019578	846.658211	-43.516524	283.404818	782.611592	-55.849602	296.194634	695.508807	-69.260723	309.670964	796.953653	-77.644953	325.460202	606.548563	-102.007723	300.959704	586.948653	-198.289339	280.267293	517.207709	-65.778142	280.610231	428.183473	-77.512747	237.334353	352.000683	-73.869578	303.884891	424.689942	-109.454197	204.993988	254.587631	-70.691010	204.916337	263.873193	-146.077474	121.369701	250.116093	-110.165500	358.339393	128.444979	-132.402231	281.265986	146.816232	-61.528101	260.665637	1011.442769	-392.502516	344.094094	1011.094167	-376.654547	350.749798	1039.345205	-350.703991	423.985466	968.219059	-378.298329	505.348713	906.176015	-361.155492	510.689422	879.377405	-259.526278	283.661109	615.351031	-405.338256	296.609014	613.082008	-332.331114	200.807569	609.025338	-369.858680	332.574803	494.565202	-430.033266	451.043147	828.984799	-389.924181	415.973669	749.454115	-391.481244	343.997174	696.973215	-398.710054	436.723676	731.835783	-363.588993	421.015045	466.825941	-360.423446	-64.661692	852.978963	-235.615844	20.885273	86.169410	-441.914562	21.063095	84.185511	-43.534151	
